HIERARCHY
ROOT root
{
	OFFSET	0	13.1	24.9
	CHANNELS 6  Xposition Yposition Zposition Xrotation Yrotation Zrotation
	JOINT spine_1
	{
		OFFSET	0	9.99999	0
		CHANNELS 3  Xrotation Yrotation Zrotation
		JOINT spine_2
		{
			OFFSET	0	112	-10
			CHANNELS 3  Xrotation Yrotation Zrotation
			JOINT spine_3
			{
				OFFSET	0	206.5	19.3
				CHANNELS 3  Xrotation Yrotation Zrotation
				JOINT spine_4
				{
					OFFSET	0	110.4	14.6
					CHANNELS 3  Xrotation Yrotation Zrotation
					JOINT neck_1
					{
						OFFSET	0	71.8	-50.3
						CHANNELS 3  Xrotation Yrotation Zrotation
						JOINT neck_2
						{
							OFFSET	0	86.2	-25.8
							CHANNELS 3  Xrotation Yrotation Zrotation
							JOINT head_ee
							{
								OFFSET	0	179.8	-8.7
								CHANNELS 3  Xrotation Yrotation Zrotation
								End Site
								{
									OFFSET	1	0	0
								}
							}
						}
					}
					JOINT left_clavicle
					{
						OFFSET	-43.2	22.4	-70.8
						CHANNELS 3  Xrotation Yrotation Zrotation
						JOINT left_shoulder
						{
							OFFSET	-93.9	-5.79999	48.7
							CHANNELS 3  Xrotation Yrotation Zrotation
							JOINT left_elbow
							{
								OFFSET	-291.4	-30.8	15.2
								CHANNELS 3  Xrotation Yrotation Zrotation
								JOINT left_lowarm_twist
								{
									OFFSET	-110.7	-3.89999	13.6
									CHANNELS 3  Xrotation Yrotation Zrotation
									JOINT left_hand
									{
										OFFSET	-110.7	-3.89999	13.6
										CHANNELS 3  Xrotation Yrotation Zrotation
										JOINT left_ee
										{
											OFFSET	-80.8	-5.10001	12.1
											CHANNELS 3  Xrotation Yrotation Zrotation
											End Site
											{
												OFFSET	1	0	0
											}
										}
									}
								}
							}
						}
					}
					JOINT right_clavicle
					{
						OFFSET	43.2	22.4	-70.8
						CHANNELS 3  Xrotation Yrotation Zrotation
						JOINT right_shoulder
						{
							OFFSET	93.9	-5.79999	48.7
							CHANNELS 3  Xrotation Yrotation Zrotation
							JOINT right_elbow
							{
								OFFSET	291.4	-30.8	15.2
								CHANNELS 3  Xrotation Yrotation Zrotation
								JOINT right_lowarm_twist
								{
									OFFSET	110.7	-3.89999	13.6
									CHANNELS 3  Xrotation Yrotation Zrotation
									JOINT right_hand
									{
										OFFSET	110.7	-3.89999	13.6
										CHANNELS 3  Xrotation Yrotation Zrotation
										JOINT right_ee
										{
											OFFSET	80.8	-5.10001	12.1
											CHANNELS 3  Xrotation Yrotation Zrotation
											End Site
											{
												OFFSET	1	0	0
											}
										}
									}
								}
							}
						}
					}
				}
			}
		}
	}
	JOINT left_hip
	{
		OFFSET	-82.8	-127.5	0.300001
		CHANNELS 3  Xrotation Yrotation Zrotation
		JOINT left_knee
		{
			OFFSET	-28.2	-396.7	2.2
			CHANNELS 3  Xrotation Yrotation Zrotation
			JOINT left_ankle
			{
				OFFSET	-11.7	-411.3	35.4
				CHANNELS 3  Xrotation Yrotation Zrotation
				JOINT left_toes
				{
					OFFSET	0	-60	-88.6
					CHANNELS 3  Xrotation Yrotation Zrotation
					JOINT left_foot_ee
					{
						OFFSET	-22.5	-16.5	-42.2
						CHANNELS 3  Xrotation Yrotation Zrotation
						End Site
						{
							OFFSET	1	0	0
						}
					}
				}
			}
		}
	}
	JOINT right_hip
	{
		OFFSET	82.8	-127.5	0.300001
		CHANNELS 3  Xrotation Yrotation Zrotation
		JOINT right_knee
		{
			OFFSET	28.2	-396.7	2.2
			CHANNELS 3  Xrotation Yrotation Zrotation
			JOINT right_ankle
			{
				OFFSET	11.7	-411.3	35.4
				CHANNELS 3  Xrotation Yrotation Zrotation
				JOINT right_toes
				{
					OFFSET	0	-60	-88.6
					CHANNELS 3  Xrotation Yrotation Zrotation
					JOINT right_foot_ee
					{
						OFFSET	22.5	-16.5	-42.2
						CHANNELS 3  Xrotation Yrotation Zrotation
						End Site
						{
							OFFSET	1	0	0
						}
					}
				}
			}
		}
	}
}
MOTION
Frames: 13
Frame Time: 0.02
1372.05 701.618 -1475.22 7.36157052818 69.1479961436 -6.61101848074 -2.63635 -0.291657 -0.261054 -2.63635 -0.274455 -0.279084 -2.63495 -0.194254 -0.339821 -2.63503 -0.245484 -0.304878 -0.625065 9.46103 0.30781 -0.441334 16.6971 1.38443 -0.0 0.0 -0.0 6.89907 18.2111 12.7376 28.2293 -29.2559 71.7024 3.26627 -58.269 1.8209 57.5451 -1.56031 -6.8769 -5.2253 28.999 -17.0599 -0.0 0.0 -0.0 10.9661 3.85389 -21.8619 -3.46274 -45.8661 -54.7481 0.946899 25.1293 -0.211048 43.5765 0.548242 5.40735 0.124332 -29.015 -12.0329 0.0 0.0 0.0 -22.2225 7.0519 4.34875 -15.2893 0.321994 2.31728 40.492 24.3616 -5.19428 -0.262198 0.0 0.0 -0.0 0.0 -0.0 35.0709 7.54961 -6.88964 -21.4178 -0.276095 -3.25603 39.0128 5.61135 4.85504 40.1615 -0.0 -0.0 0.0 0.0 0.0 
1342.44200728 698.079 -1488.35387571 8.86343671444 69.9606853813 -8.3311646152 -2.63546 -0.176456 -0.226124 -2.63544 -0.161709 -0.236894 -2.63472 -0.0959859 -0.270287 -2.6348 -0.137468 -0.251736 -0.107097 8.87962 -0.435308 0.0872817 16.2003 0.463252 -0.0 0.0 -0.0 6.64665 18.4344 12.3243 25.8919 -29.9741 70.2267 3.10732 -56.9779 1.68665 57.0953 -1.52226 -6.83359 -5.21202 28.9075 -17.0532 -0.0 0.0 -0.0 11.1516 4.05017 -22.2702 -2.57035 -45.7778 -55.0247 0.87976 23.5477 -0.183376 43.6078 0.550096 5.4109 0.0456766 -29.4313 -11.7428 0.0 0.0 0.0 -23.4498 7.28225 4.05621 -17.8663 0.314933 2.71257 39.4283 25.5403 -5.1303 0.282845 -0.0 -0.0 -0.0 0.0 -0.0 34.123 7.5569 -7.29517 -22.9275 -0.249396 -3.48614 38.9503 6.21525 4.85938 39.6871 -0.0 -0.0 0.0 0.0 0.0 
1308.48774339 694.614 -1498.20853051 10.764915422 70.5456241909 -10.6998387509 -2.68216 -0.104453 -0.134125 -2.68215 -0.0957066 -0.1405 -2.6819 -0.0566007 -0.160301 -2.68193 -0.0812069 -0.14935 0.164228 9.32474 -0.171782 0.3764 16.7509 0.758787 -0.0 0.0 -0.0 6.4808 18.5219 12.0587 23.2246 -31.5708 70.0977 2.84127 -54.5962 1.46659 56.7855 -1.49625 -6.8036 -5.14266 28.7633 -16.7661 -0.0 0.0 -0.0 11.2451 3.96701 -22.4694 -1.80158 -45.6741 -55.1433 0.856382 22.9877 -0.174141 43.9305 0.56933 5.44743 0.0389864 -28.9611 -11.5448 0.0 0.0 0.0 -24.402 8.66841 3.81842 -20.2853 0.292138 3.08299 36.7045 25.2411 -4.84735 0.650288 -0.0 -0.0 -0.0 0.0 -0.0 33.8074 7.08263 -6.85421 -28.8464 -0.0865188 -4.3795 39.1567 6.34192 4.87974 39.4731 -0.0 -0.0 0.0 0.0 0.0 
1278.45076935 691.481 -1505.92417083 14.5884381028 72.1972342134 -15.0876522016 -2.65088 -0.0280633 0.120777 -2.65087 -0.0356918 0.118747 -2.65094 -0.0648108 0.105708 -2.65096 -0.0473028 0.114617 0.721884 8.27287 0.459605 0.880413 14.2967 1.28597 -0.0 0.0 -0.0 5.23528 18.6862 10.1183 21.0471 -34.1579 70.6921 2.72179 -53.4269 1.36991 56.731 -1.49169 -6.79831 -4.79107 28.5025 -14.9624 -0.0 0.0 -0.0 11.2669 3.85563 -22.512 -1.05794 -46.5977 -55.8606 0.827629 22.2926 -0.163072 44.714 0.616891 5.5357 -0.117463 -28.9781 -10.6921 0.0 0.0 0.0 -24.4355 8.22204 3.0988 -24.0591 0.225412 3.65813 35.3611 24.6323 -4.6897 1.06917 -0.0 -0.0 -0.0 0.0 -0.0 31.6171 6.73801 -7.0028 -32.3488 0.0530442 -4.89878 34.51 5.47294 4.43299 40.0092 -0.0 -0.0 0.0 0.0 0.0 
1246.16512532 697.447 -1512.74461852 18.2666163011 73.0059668629 -19.0079112104 -2.48953 0.102118 0.158815 -2.48952 0.0918053 0.164992 -2.48923 0.0471819 0.182823 -2.48927 0.0754632 0.173077 -0.173388 7.96207 -1.47612 0.0172631 15.4128 -0.7443 -0.0 0.0 -0.0 5.15136 19.9085 9.95382 16.8764 -35.2726 69.3511 2.41236 -50.0695 1.12681 56.2214 -1.44931 -6.74862 -4.37755 28.6822 -12.5233 -0.0 0.0 -0.0 11.1418 4.36094 -22.2604 1.23325 -48.6652 -56.6863 0.831803 22.394 -0.164659 44.5421 0.606351 5.51639 -0.0301867 -28.9827 -11.1723 0.0 0.0 0.0 -22.2724 8.24158 2.04886 -32.1872 -0.0459049 4.87501 33.1267 24.456 -4.44523 2.63841 -0.0 -0.0 -0.0 0.0 -0.0 27.2215 6.83873 -6.616 -32.1683 0.0450735 -4.87222 32.5199 5.6011 4.23529 39.6377 -0.0 -0.0 0.0 0.0 0.0 
1219.01291908 703.096 -1519.87768313 22.2461962957 74.4702775538 -23.3781541198 -2.53482 0.154288 0.203074 -2.53481 0.141053 0.21248 -2.53425 0.0826581 0.24127 -2.53431 0.119725 0.225188 -1.49938 8.08794 0.0125015 -1.37706 14.5568 1.0136 -0.0 0.0 -0.0 4.4759 20.8918 8.92698 13.1091 -35.2819 68.7195 2.27958 -48.4666 1.02619 55.8675 -1.42014 -6.71391 -3.78379 28.6172 -9.29151 -0.0 0.0 -0.0 11.7204 4.6661 -23.5345 4.01196 -49.2546 -56.0977 0.816425 22.0199 -0.158847 43.54 0.54608 5.40321 -0.287447 -27.68 -9.28582 0.0 0.0 0.0 -20.1657 8.65974 0.884226 -39.558 -0.438886 5.93632 32.9209 25.1346 -4.44061 4.12843 -0.0 -0.0 -0.0 0.0 -0.0 23.8023 6.71508 -6.29101 -31.9781 0.0367695 -4.84422 29.1935 4.44832 3.86775 39.6566 -0.0 -0.0 0.0 0.0 0.0 
1192.4759122 711.209 -1525.09512621 29.6016687928 75.9502960069 -31.287721532 -2.56032 -0.0288169 0.4436 -2.56021 -0.0569856 0.440867 -2.56056 -0.166949 0.411995 -2.56078 -0.0997872 0.43319 -3.74184 8.26748 0.966224 -3.67307 14.3571 2.27651 -0.0 0.0 -0.0 3.66737 21.2432 7.74552 9.06077 -35.9779 67.7048 2.12839 -46.5094 0.914719 54.4486 -1.30537 -6.57291 -3.33711 27.8338 -7.31171 -0.0 0.0 -0.0 11.6341 4.74712 -23.3484 9.03752 -51.2585 -55.539 0.764797 20.7495 -0.14002 42.8603 0.50634 5.32587 -0.967518 -26.3112 -4.97335 0.0 0.0 0.0 -17.6572 9.06241 -0.865407 -44.0779 -0.746373 6.55949 25.8579 25.5525 -3.62571 4.34554 -0.0 -0.0 -0.0 0.0 -0.0 21.0259 5.50444 -5.02225 -33.1874 0.0911578 -5.02181 27.6712 4.30092 3.69784 36.6507 -0.0 -0.0 0.0 0.0 0.0 
1193.79251094 711.209 -1529.61346301 26.9847742327 74.6759312 -28.5826334048 -2.56032 -0.0288169 0.4436 -2.56021 -0.0569856 0.440867 -2.56056 -0.166949 0.411995 -2.56078 -0.0997872 0.43319 -3.74184 8.26748 0.966224 -3.67307 14.3571 2.27651 -0.0 0.0 -0.0 3.66737 21.2432 7.74552 9.06077 -35.9779 67.7048 2.12839 -46.5094 0.914719 54.4486 -1.30537 -6.57291 -3.33711 27.8338 -7.31171 -0.0 0.0 -0.0 11.6341 4.74712 -23.3484 9.03752 -51.2585 -55.539 0.764797 20.7495 -0.14002 42.8603 0.50634 5.32587 -0.967518 -26.3112 -4.97335 0.0 0.0 0.0 -17.6572 9.06241 -0.865407 -44.0779 -0.746373 6.55949 25.8579 25.5525 -3.62571 4.34554 -0.0 -0.0 -0.0 0.0 -0.0 21.0259 5.50444 -5.02225 -33.1874 0.0911578 -5.02181 27.6712 4.30092 3.69784 36.6507 -0.0 -0.0 0.0 0.0 0.0 
1152.66854132 724.063 -1528.38747523 41.7664584903 78.5158748069 -43.6343110314 -2.43158 0.0654449 0.560496 -2.4314 0.0296471 0.563524 -2.43091 -0.113009 0.552872 -2.43134 -0.0242765 0.563781 -8.96199 8.17864 2.02943 -8.99401 13.9334 3.90415 -0.0 0.0 -0.0 3.21151 22.7156 7.11243 4.83908 -34.5716 67.8775 1.76416 -41.1469 0.662215 49.782 -0.95325 -6.09016 -3.27359 28.5727 -6.53597 -0.0 0.0 -0.0 11.3555 5.96725 -22.7775 16.9866 -54.9611 -56.7146 0.813362 21.9451 -0.1577 41.6175 0.436056 5.18325 -2.10152 -26.6748 1.13784 0.0 0.0 0.0 -10.9383 8.43307 -3.40036 -52.2389 -1.4227 7.61703 5.72245 26.3276 -0.868 5.54984 -0.0 -0.0 -0.0 0.0 -0.0 17.3918 7.86795 -5.64324 -32.9487 0.0801238 -4.98684 25.548 0.288699 3.41852 29.3263 -0.0 -0.0 0.0 0.0 0.0 
1131.71753155 723.04 -1526.37310559 47.906638022 80.2299963714 -49.5163563732 -2.2649 0.0597308 0.367077 -2.26482 0.0362518 0.370134 -2.2645 -0.0569181 0.367524 -2.26469 0.00183932 0.3719 -8.88876 8.01455 1.60443 -8.92273 13.9124 3.44085 -0.0 0.0 -0.0 2.48543 23.5197 6.12466 2.42275 -35.7448 67.9691 1.72216 -40.4643 0.634771 48.3077 -0.850341 -5.93193 -3.26639 28.6818 -6.4339 -0.0 0.0 -0.0 11.1507 6.11593 -22.3323 20.9575 -56.1829 -55.9872 0.870952 23.3373 -0.179872 41.5232 0.430852 5.17238 -2.2932 -26.1471 2.46192 0.0 0.0 0.0 -9.08387 7.36783 -3.87314 -53.5127 -1.54166 7.77312 2.88948 28.7392 -0.447999 5.46435 -0.0 -0.0 -0.0 0.0 -0.0 16.285 7.31488 -5.51435 -31.6288 0.0217596 -4.79272 23.1133 -1.79664 3.12109 26.95 -0.0 -0.0 0.0 0.0 0.0 
1091.12457128 740.464 -1517.04913771 67.5980448248 83.1655670926 -68.6696754924 -1.96796 0.146582 0.171578 -1.96795 0.135367 0.180558 -1.9675 0.0873017 0.208095 -1.96754 0.119071 0.191696 -9.66804 7.871 1.78715 -9.71359 13.5861 3.6734 -0.0 0.0 -0.0 3.66665 22.6827 7.75235 -2.26769 -34.9043 66.7502 0.969802 -25.6597 0.22087 45.2488 -0.650041 -5.59556 -3.4037 28.5149 -7.27734 -0.0 0.0 -0.0 11.5696 7.01185 -23.2752 26.8421 -57.297 -56.9229 1.07346 28.0015 -0.267666 42.0258 0.458802 5.23027 -2.92141 -27.4814 5.22804 0.0 0.0 0.0 -5.61483 0.14939 -4.17098 -47.9584 -1.04905 7.07414 -11.4916 28.3933 1.82305 1.84593 -0.0 -0.0 -0.0 0.0 -0.0 14.9911 13.966 -8.10969 -28.8047 -0.0879909 -4.37326 22.2463 -11.6383 3.01543 20.4996 -0.0 -0.0 0.0 0.0 0.0 
1092.56538929 740.464 -1525.78802979 55.2626385888 82.306058861 -56.2355856997 -1.96796 0.146582 0.171578 -1.96795 0.135367 0.180558 -1.9675 0.0873017 0.208095 -1.96754 0.119071 0.191696 -9.66804 7.871 1.78715 -9.71359 13.5861 3.6734 -0.0 0.0 -0.0 3.66665 22.6827 7.75235 -2.26769 -34.9043 66.7502 0.969802 -25.6597 0.22087 45.2488 -0.650041 -5.59556 -3.4037 28.5149 -7.27734 -0.0 0.0 -0.0 11.5696 7.01185 -23.2752 26.8421 -57.297 -56.9229 1.07346 28.0015 -0.267666 42.0258 0.458802 5.23027 -2.92141 -27.4814 5.22804 0.0 0.0 0.0 -5.61483 0.14939 -4.17098 -47.9584 -1.04905 7.07414 -11.4916 28.3933 1.82305 1.84593 -0.0 -0.0 -0.0 0.0 -0.0 14.9911 13.966 -8.10969 -28.8047 -0.0879909 -4.37326 22.2463 -11.6383 3.01543 20.4996 -0.0 -0.0 0.0 0.0 0.0 
1062.38009392 757.216 -1517.80296128 67.0251408855 83.138666008 -67.108496203 -1.82714 0.0682002 0.319546 -1.82708 0.0477286 0.323238 -1.82675 -0.0316573 0.325205 -1.8269 0.0200998 0.326124 -9.85838 7.27718 0.903331 -9.90883 13.0822 2.68614 -0.0 0.0 -0.0 4.96428 23.1293 9.57469 -6.15779 -33.884 65.5713 0.409457 -11.4661 0.041108 42.9842 -0.513513 -5.34 -3.82266 28.7942 -9.39424 -0.0 0.0 -0.0 11.1252 7.86809 -22.3072 30.3968 -56.4588 -60.3844 1.14996 29.6673 -0.304566 45.2337 0.649103 5.59388 -2.74144 -28.9156 3.47146 0.0 0.0 0.0 -0.5194 -10.6268 -2.86945 -44.6254 -0.786941 6.6333 -22.8749 29.6364 3.68495 -1.57291 0.0 0.0 -0.0 0.0 -0.0 12.6894 18.3798 -9.71214 -27.4508 -0.133233 -4.17041 20.6402 -18.0174 2.86169 17.4204 -0.0 -0.0 0.0 0.0 0.0 
